<svg xmlns="http://www.w3.org/2000/svg" width="20" height="20" viewBox="0 0 20 20" fill="none">
    <path d="M6.875 17.5C7.56536 17.5 8.125 16.9404 8.125 16.25C8.125 15.5596 7.56536 15 6.875 15C6.18464 15 5.625 15.5596 5.625 16.25C5.625 16.9404 6.18464 17.5 6.875 17.5Z" fill="white"/>
    <path d="M15.625 17.5C16.3154 17.5 16.875 16.9404 16.875 16.25C16.875 15.5596 16.3154 15 15.625 15C14.9346 15 14.375 15.5596 14.375 16.25C14.375 16.9404 14.9346 17.5 15.625 17.5Z" fill="white"/>
    <path d="M17.8437 4.71821C17.7559 4.61081 17.6453 4.52431 17.5199 4.46498C17.3945 4.40566 17.2575 4.37501 17.1187 4.37524H5.23008L4.99062 3.01665C4.96509 2.87193 4.88938 2.74084 4.7768 2.6464C4.66421 2.55196 4.52195 2.50021 4.375 2.50024H1.875C1.70924 2.50024 1.55027 2.56609 1.43306 2.6833C1.31585 2.80051 1.25 2.95948 1.25 3.12524C1.25 3.291 1.31585 3.44998 1.43306 3.56719C1.55027 3.6844 1.70924 3.75024 1.875 3.75024H3.85078L5.63437 13.8588C5.65991 14.0035 5.73561 14.1346 5.8482 14.2291C5.96079 14.3235 6.10305 14.3753 6.25 14.3752H16.25C16.4158 14.3752 16.5747 14.3094 16.6919 14.1922C16.8091 14.075 16.875 13.916 16.875 13.7502C16.875 13.5845 16.8091 13.4255 16.6919 13.3083C16.5747 13.1911 16.4158 13.1252 16.25 13.1252H6.77422L6.5539 11.8752H15.9937C16.2105 11.875 16.4205 11.7998 16.5882 11.6625C16.7559 11.5252 16.871 11.3342 16.9141 11.1217L18.0391 5.49673C18.0662 5.3606 18.0627 5.22014 18.0289 5.08551C17.9952 4.95088 17.9319 4.82543 17.8437 4.71821Z" fill="white"/>
</svg>
