<svg width="100" height="51" viewBox="0 0 100 51" fill="none" xmlns="http://www.w3.org/2000/svg">
    <path d="M74.452 26.9517L78.952 31.4517L86.452 20.9517M98.452 25.4517C98.452 27.8155 97.9864 30.1561 97.0818 32.34C96.1772 34.5238 94.8513 36.5081 93.1799 38.1796C91.5084 39.851 89.5241 41.1769 87.3403 42.0815C85.1564 42.9861 82.8158 43.4517 80.452 43.4517C78.0882 43.4517 75.7475 42.9861 73.5637 42.0815C71.3798 41.1769 69.3955 39.851 67.724 38.1796C66.0526 36.5081 64.7267 34.5238 63.8221 32.34C62.9175 30.1561 62.452 27.8155 62.452 25.4517C62.452 20.6778 64.3484 16.0994 67.724 12.7237C71.0997 9.34808 75.6781 7.45166 80.452 7.45166C85.2259 7.45166 89.8042 9.34808 93.1799 12.7237C96.5555 16.0994 98.452 20.6778 98.452 25.4517Z" stroke="#94A3B8" stroke-width="3" stroke-linecap="round" stroke-linejoin="round"/>
</svg>
